HIERARCHY
ROOT SpineBase
{
  OFFSET 0.000000 0.000000 0.000000
  CHANNELS 6 Xposition Yposition Zposition Zrotation Xrotation Yrotation
  JOINT SpineMid
  {
    OFFSET 0.000000 28.679789 0.000000
    CHANNELS 3 Zrotation Xrotation Yrotation
    JOINT SpineShoulder
    {
      OFFSET -0.121876 21.389922 -0.779727
      CHANNELS 3 Zrotation Xrotation Yrotation
      JOINT Neck
      {
        OFFSET -0.068072 7.123155 -0.559137
        CHANNELS 3 Zrotation Xrotation Yrotation
        JOINT Head
        {
          OFFSET -4.740430 11.076795 2.306861
          CHANNELS 3 Zrotation Xrotation Yrotation
          End Site
          {
            OFFSET 0 0 0
          }
        }
      }
      JOINT ShoulderLeft
      {
        OFFSET -12.572489 -4.933028 8.011420
        CHANNELS 3 Zrotation Xrotation Yrotation
        JOINT ElbowLeft
        {
          OFFSET -4.544069 -22.849690 4.345351
          CHANNELS 3 Zrotation Xrotation Yrotation
          JOINT WristLeft
          {
            OFFSET 1.203307 -22.717176 -6.553308
            CHANNELS 3 Zrotation Xrotation Yrotation
            JOINT HandLeft
            {
              OFFSET -0.095646 -5.226466 -0.482619
              CHANNELS 3 Zrotation Xrotation Yrotation
              JOINT HandTipLeft
              {
                OFFSET 0.604972 -4.918481 -0.741109
                CHANNELS 3 Zrotation Xrotation Yrotation
                End Site
                {
                  OFFSET 0 0 0
                }
              }
              JOINT ThumbLeft
              {
                OFFSET -2.429755 0.147585 -0.494346
                CHANNELS 3 Zrotation Xrotation Yrotation
                End Site
                {
                  OFFSET 0 0 0
                }
              }
            }
          }
        }
      }
      JOINT ShoulderRight
      {
        OFFSET 10.700201 -2.564220 -10.154725
        CHANNELS 3 Zrotation Xrotation Yrotation
        JOINT ElbowRight
        {
          OFFSET 6.547061 -18.393919 -5.043693
          CHANNELS 3 Zrotation Xrotation Yrotation
          JOINT WristRight
          {
            OFFSET -23.225061 -3.379605 -7.653558
            CHANNELS 3 Zrotation Xrotation Yrotation
            JOINT HandRight
            {
              OFFSET -7.665546 -1.555602 -1.996471
              CHANNELS 3 Zrotation Xrotation Yrotation
              JOINT HandTipRight
              {
                OFFSET -5.956989 -2.688541 -3.288437
                CHANNELS 3 Zrotation Xrotation Yrotation
                End Site
                {
                  OFFSET 0 0 0
                }
              }
              JOINT ThumbRight
              {
                OFFSET -2.106764 -5.179039 -1.629874
                CHANNELS 3 Zrotation Xrotation Yrotation
                End Site
                {
                  OFFSET 0 0 0
                }
              }
            }
          }
        }
      }
    }
  }
  JOINT HipLeft
  {
    OFFSET -5.609757 0.324385 0.545661
    CHANNELS 3 Zrotation Xrotation Yrotation
    JOINT KneeLeft
    {
      OFFSET 3.559298 -32.535247 1.971918
      CHANNELS 3 Zrotation Xrotation Yrotation
      JOINT AnkleLeft
      {
        OFFSET 8.513869 -30.740314 6.041877
        CHANNELS 3 Zrotation Xrotation Yrotation
        JOINT FootLeft
        {
          OFFSET 1.848020 -5.482027 -6.135120
          CHANNELS 3 Zrotation Xrotation Yrotation
          End Site
          {
            OFFSET 0 0 0
          }
        }
      }
    }
  }
  JOINT HipRight
  {
    OFFSET 4.991714 1.775207 -6.960014
    CHANNELS 3 Zrotation Xrotation Yrotation
    JOINT KneeRight
    {
      OFFSET 4.587822 -29.679203 -1.061733
      CHANNELS 3 Zrotation Xrotation Yrotation
      JOINT AnkleRight
      {
        OFFSET 7.962929 -30.761080 3.330661
        CHANNELS 3 Zrotation Xrotation Yrotation
        JOINT FootRight
        {
          OFFSET -3.945712 -6.326451 -1.596042
          CHANNELS 3 Zrotation Xrotation Yrotation
          End Site
          {
            OFFSET 0 0 0
          }
        }
      }
    }
  }
}
MOTION
Frames: 14
Frame Time: 0.033333
30.899629 73.025204 330.742716 -0.000000 0.000000 35.297894 -0.000000 0.000000 -35.297894 -0.000000 0.000000 0.000000 -0.000000 0.000000 0.000000 0.000000 0.000000 0.000000 -0.000000 0.000000 0.000000 -0.000000 0.000000 0.000000 -0.000000 0.000000 0.000000 -0.000000 0.000000 0.000000 0.000000 0.000000 0.000000 0.000000 0.000000 0.000000 -0.000000 0.000000 0.000000 -0.000000 0.000000 0.000000 -0.000000 0.000000 0.000000 -0.000000 0.000000 0.000000 0.000000 0.000000 0.000000 0.000000 0.000000 0.000000 -0.000000 0.000000 -35.297894 -0.000000 0.000000 0.000000 -0.000000 0.000000 0.000000 0.000000 0.000000 0.000000 -0.000000 0.000000 -35.297894 -0.000000 0.000000 0.000000 -0.000000 0.000000 0.000000 0.000000 0.000000 0.000000
30.909162 73.010042 330.694409 0.102620 0.075316 35.238169 -0.127272 -0.002306 -35.238239 -0.000000 0.000000 0.000000 -0.000000 0.000000 0.000000 0.000000 0.000000 0.000000 -0.000000 0.000000 0.000000 -0.000000 0.000000 0.000000 -1.528113 -3.247099 0.157614 1.611039 1.669253 -0.453141 0.000000 0.000000 0.000000 0.000000 0.000000 0.000000 -3.860946 0.968697 1.450506 5.295220 -1.535008 -1.715486 -0.513208 0.368220 -0.586660 -3.038217 1.884790 -0.562179 0.000000 0.000000 0.000000 0.000000 0.000000 0.000000 -0.127272 -0.002306 -35.238239 -0.000000 0.000000 0.000000 1.009652 -1.304250 -1.573432 0.000000 0.000000 0.000000 -0.127272 -0.002306 -35.238239 -0.000000 0.000000 0.000000 -3.445564 7.849689 -3.663981 0.000000 0.000000 0.000000
30.905201 72.996626 330.651559 0.184914 0.134890 35.186997 -0.228855 -0.003686 -35.187222 -0.000000 0.000000 0.000000 -0.749598 -1.042072 -0.298079 0.000000 0.000000 0.000000 -0.000000 0.000000 0.000000 -0.000000 0.000000 0.000000 -2.948205 -6.175394 0.227378 3.090847 3.376367 -0.917849 0.000000 0.000000 0.000000 0.000000 0.000000 0.000000 -7.600598 1.799905 2.902974 10.268300 -3.130460 -3.218959 -0.966692 0.708442 -1.234379 -5.677428 3.332328 -0.661641 0.000000 0.000000 0.000000 0.000000 0.000000 0.000000 -0.228855 -0.003686 -35.187222 -0.000000 0.000000 0.000000 1.592214 -2.173200 -2.525879 0.000000 0.000000 0.000000 -0.228855 -0.003686 -35.187222 -0.000000 0.000000 0.000000 -5.897307 14.392752 -6.374806 0.000000 0.000000 0.000000
30.887748 72.984955 330.614164 0.246861 0.178707 35.144326 -0.304730 -0.004026 -35.144722 -0.000000 0.000000 0.000000 -0.977554 -1.432073 -0.424180 0.000000 0.000000 0.000000 -0.000000 0.000000 0.000000 0.603530 -0.624842 -0.204175 -4.787052 -8.072871 0.488639 4.400235 4.992556 -1.360408 0.000000 0.000000 0.000000 0.000000 0.000000 0.000000 -11.139342 2.486436 4.313854 14.854966 -4.722993 -4.501871 -1.363173 1.021149 -1.937436 -7.933350 4.345706 -0.351513 0.000000 0.000000 0.000000 0.000000 0.000000 0.000000 -0.304730 -0.004026 -35.144722 -0.000000 0.000000 0.000000 1.767711 -2.580991 -2.865605 0.000000 0.000000 0.000000 -0.304730 -0.004026 -35.144722 -0.000000 0.000000 0.000000 -7.631007 19.671898 -8.404450 0.000000 0.000000 0.000000
30.856801 72.975029 330.582225 0.288446 0.206754 35.110117 -0.354877 -0.003234 -35.110647 -0.000000 0.000000 0.000000 -1.106284 -1.734407 -0.532533 0.000000 0.000000 0.000000 -0.000000 0.000000 0.000000 0.810456 -0.755380 -0.268879 -6.056545 -9.952278 0.544814 5.504724 6.417908 -1.745141 0.000000 0.000000 0.000000 0.000000 0.000000 0.000000 -14.408121 3.031375 5.642747 19.004780 -6.252819 -5.569542 -1.705223 1.307211 -2.689542 -9.812934 4.937683 0.325763 0.000000 0.000000 0.000000 0.000000 0.000000 0.000000 -0.354877 -0.003234 -35.110647 -0.000000 0.000000 0.000000 1.544606 -2.518566 -2.595550 0.000000 0.000000 0.000000 -0.354877 -0.003234 -35.110647 -0.000000 0.000000 0.000000 -8.850019 23.867123 -9.954477 0.000000 0.000000 0.000000
30.812362 72.966849 330.555743 0.309652 0.219020 35.084338 -0.379278 -0.001242 -35.084934 -0.000000 0.000000 0.000000 -1.135206 -1.949062 -0.621920 0.000000 0.000000 0.000000 -0.000000 0.000000 0.000000 1.020519 -0.846942 -0.332271 -7.113984 -11.313034 0.583081 6.376815 7.584197 -2.039678 0.000000 0.000000 0.000000 0.000000 0.000000 0.000000 -17.352199 3.445923 6.855636 22.681276 -7.668181 -6.438157 -1.994975 1.567774 -3.484063 -11.314010 5.125135 1.340107 0.000000 0.000000 0.000000 0.000000 0.000000 0.000000 -0.379278 -0.001242 -35.084934 -0.000000 0.000000 0.000000 0.918037 -1.991011 -1.711254 0.000000 0.000000 0.000000 -0.379278 -0.001242 -35.084934 -0.000000 0.000000 0.000000 -9.693740 27.177555 -11.164447 0.000000 0.000000 0.000000
30.799691 72.956154 330.540974 0.311560 0.202108 35.044983 -0.371128 0.013439 -35.045488 -0.000000 0.000000 0.000000 -0.918701 -2.020462 -0.694560 0.000000 0.000000 0.000000 -0.000000 0.000000 0.000000 1.282749 -0.890442 -0.407924 -8.337796 -11.767514 0.649155 7.482809 8.478333 -2.251928 0.000000 0.000000 0.000000 0.000000 0.000000 0.000000 -19.316209 3.609286 7.632535 25.083636 -8.536152 -6.924897 -2.402639 1.756448 -3.788719 -12.062040 4.836397 2.585712 0.000000 0.000000 0.000000 0.000000 0.000000 0.000000 -0.371128 0.013439 -35.045488 0.662284 0.743077 0.331573 -0.940291 -3.499403 -1.012325 0.000000 0.000000 0.000000 -0.371128 0.013439 -35.045488 -0.000000 0.000000 0.000000 -9.612062 24.878260 -10.089303 0.000000 0.000000 0.000000
30.767627 72.960714 330.508495 0.342837 0.199593 35.101032 -0.395257 0.033845 -35.101513 -0.000000 0.000000 0.000000 -0.836930 -2.041922 -0.719477 0.000000 0.000000 0.000000 -0.000000 0.000000 0.000000 1.451366 -0.992051 -0.459524 -9.383010 -11.389670 0.732341 6.474453 6.173792 -2.075481 0.000000 0.000000 0.000000 0.000000 0.000000 0.000000 -19.966496 3.604389 7.862083 25.851796 -8.760794 -6.991841 -2.558297 1.928584 -4.538066 -12.572951 4.359038 4.066964 0.000000 0.000000 0.000000 0.000000 0.000000 0.000000 -0.395257 0.033845 -35.101513 0.621736 0.907465 0.368633 1.802352 -5.259475 -4.608520 0.000000 0.000000 0.000000 -0.395257 0.033845 -35.101513 -0.000000 0.000000 0.000000 -11.190001 31.208440 -12.318477 0.000000 0.000000 0.000000
30.641819 72.957401 330.500299 0.287789 0.165359 35.116160 -0.330528 0.030286 -35.116488 -0.000000 0.000000 0.000000 -0.643893 -1.995987 -0.735837 0.000000 0.000000 0.000000 -0.190608 1.158663 -0.265171 1.948457 -1.938836 -0.230298 -9.400777 -12.060233 0.756741 5.615129 8.597522 -1.569069 0.000000 0.000000 0.000000 0.000000 0.000000 0.000000 -21.374584 3.826985 8.493136 27.569142 -9.556321 -7.287188 -2.350676 1.968819 -5.088843 -11.704780 3.612542 4.535149 0.000000 0.000000 0.000000 0.000000 0.000000 0.000000 -0.330528 0.030286 -35.116488 0.607292 0.782426 0.331877 -1.144827 -0.094491 0.482187 0.000000 0.000000 0.000000 -0.130278 -0.830083 -35.229560 -0.659909 0.587256 0.117852 -10.369387 31.837496 -13.053089 0.000000 0.000000 0.000000
30.440645 72.942233 330.525508 0.198517 0.125210 35.013697 -0.234431 0.011355 -35.013891 -0.000000 0.000000 0.000000 -0.823851 -1.974081 -0.692132 0.000000 0.000000 0.000000 -0.104032 2.051876 -0.427393 2.131897 -2.580564 -0.095333 -8.567784 -12.735989 0.778381 7.805026 15.023934 -1.753841 0.000000 0.000000 0.000000 0.000000 0.000000 0.000000 -23.763805 3.813167 9.368043 30.444280 -10.527981 -7.099091 -1.726866 2.220648 -8.053970 -13.767069 3.410486 6.539755 0.000000 0.000000 0.000000 0.000000 0.000000 0.000000 -0.234431 0.011355 -35.013891 -0.000000 0.000000 0.000000 1.955087 1.755095 -1.589962 0.000000 0.000000 0.000000 0.193335 -1.167255 -35.157416 -1.028469 0.717208 0.154277 -10.580951 37.915487 -15.826323 0.000000 0.000000 0.000000
30.191430 72.904648 330.553475 0.136602 0.074011 34.813048 -0.154406 0.017222 -34.813113 -0.000000 0.000000 0.000000 -0.871057 -1.940055 -0.668207 0.000000 0.000000 0.000000 -0.038804 2.915236 -0.589070 2.372189 -3.221258 0.035094 -7.609517 -14.761399 0.796905 8.254121 19.245665 -2.086910 0.000000 0.000000 0.000000 0.000000 0.000000 0.000000 -22.599710 2.880394 8.405407 29.254833 -8.964720 -7.710030 -2.237444 2.542112 -8.832817 -13.331780 2.743033 8.081814 0.000000 0.000000 0.000000 0.000000 0.000000 0.000000 -0.154406 0.017222 -34.813113 0.831885 -0.183577 0.113731 6.188765 0.593319 -7.683036 0.000000 0.000000 0.000000 -0.154406 0.017222 -34.813113 -0.000000 0.000000 0.000000 -10.830748 35.224623 -14.406522 0.000000 0.000000 0.000000
29.900436 72.902242 330.588054 0.045306 0.030575 34.731248 -0.054653 0.000685 -34.731260 -0.000000 0.000000 0.000000 -0.728367 -2.121076 -0.774714 0.000000 0.000000 0.000000 -0.391143 2.584319 -0.581682 2.397752 -3.823122 0.075805 -8.279295 -10.591899 0.954098 13.619883 21.553642 -3.198779 0.000000 0.000000 0.000000 0.000000 0.000000 0.000000 -26.358718 3.136432 9.939945 34.549393 -11.087174 -10.070730 -3.199168 3.100728 -10.343916 -15.475576 3.189346 8.854027 0.000000 0.000000 0.000000 0.000000 0.000000 0.000000 -0.023217 1.033724 -34.670750 1.711662 -0.922455 0.171835 4.347417 5.722630 -4.400295 0.000000 0.000000 0.000000 0.498010 1.888790 -34.429502 1.700144 -3.815117 -0.628805 -13.451969 43.061636 -15.697491 0.000000 0.000000 0.000000
29.616057 72.880244 330.577864 0.081918 -0.057803 34.309451 -0.035083 0.093920 -34.309381 -0.000000 0.000000 0.000000 -0.633264 -2.158052 -0.808784 0.000000 0.000000 0.000000 -0.242899 2.805332 -0.600785 3.562180 -1.083860 -0.135530 -5.455896 -15.024232 0.954913 12.654545 28.162544 -3.862746 0.000000 0.000000 0.000000 0.000000 0.000000 0.000000 -22.412521 4.455129 9.228353 30.826950 -11.384583 -11.277731 -3.846967 2.963819 -7.917211 -13.254333 4.161836 5.565887 0.000000 0.000000 0.000000 0.000000 0.000000 0.000000 -0.646704 2.267756 -34.242760 3.093057 -1.197513 0.337180 6.379625 5.211940 -6.951424 0.000000 0.000000 0.000000 0.291186 5.476498 -33.508257 4.227531 -8.007763 -1.227021 -16.987823 45.297037 -13.679241 0.000000 0.000000 0.000000
29.389499 72.858022 330.558546 0.268697 -0.252725 33.889712 -0.082133 0.359613 -33.888862 -0.000000 0.000000 0.000000 -0.459185 -2.071656 -0.803747 0.000000 0.000000 0.000000 0.501039 3.797590 -0.681705 3.281883 -1.577852 -0.138270 -1.825652 -14.706969 1.249453 11.517055 31.817057 -4.273023 0.000000 0.000000 0.000000 0.000000 0.000000 0.000000 -13.634455 6.361253 6.966067 21.299097 -10.703076 -12.887511 -4.454204 3.350754 -8.943399 -8.200616 3.673660 4.652696 0.000000 0.000000 0.000000 0.000000 0.000000 0.000000 -1.505519 3.848813 -33.795590 4.584465 -1.387301 0.545290 8.193313 2.045122 -9.910743 0.000000 0.000000 0.000000 -0.162892 10.264788 -32.406305 6.751050 -12.778251 -1.831338 -13.512570 44.368216 -14.506239 0.000000 0.000000 0.000000
